<?xml version="1.0" standalone="no"?>
<!DOCTYPE svg PUBLIC "-//W3C//DTD SVG 20010904//EN"
 "http://www.w3.org/TR/2001/REC-SVG-20010904/DTD/svg10.dtd">
<svg version="1.0" xmlns="http://www.w3.org/2000/svg"
 width="901.000000pt" height="901.000000pt" viewBox="0 0 901.000000 901.000000"
 preserveAspectRatio="xMidYMid meet">
<metadata>
Created by potrace 1.11, written by Peter Selinger 2001-2013
</metadata>
<g transform="translate(0.000000,901.000000) scale(0.100000,-0.100000)"
fill="#000000" stroke="none">
<path d="M6074 6315 c3 -14 -2 -31 -10 -39 -17 -18 -18 -37 -2 -33 8 1 12 -21
13 -75 1 -91 13 -112 62 -102 21 4 30 11 26 20 -3 8 -9 11 -14 8 -5 -2 -17 -1
-27 5 -14 8 -18 22 -17 77 0 57 3 68 19 70 23 3 30 10 22 22 -3 6 -15 8 -25 5
-16 -4 -19 0 -16 31 3 30 1 36 -16 36 -15 0 -18 -5 -15 -25z"/>
<path d="M6513 6285 c-68 -29 -84 -105 -34 -156 33 -33 70 -37 115 -14 28 15
28 15 21 -13 -10 -43 -48 -76 -78 -68 -14 3 -33 13 -42 22 -10 11 -20 13 -26
7 -16 -16 35 -55 75 -56 65 -2 106 61 106 163 0 88 -68 144 -137 115z m100
-69 c12 -36 -6 -72 -43 -85 -33 -11 -76 7 -74 32 1 9 -2 14 -7 11 -14 -8 -11
40 4 58 36 46 102 37 120 -16z"/>
<path d="M6520 6180 c-9 -6 -10 -10 -3 -10 6 0 15 5 18 10 8 12 4 12 -15 0z"/>
<path d="M6974 6290 c-11 -4 -25 -15 -32 -23 -19 -23 3 -31 33 -11 31 20 71
12 80 -17 8 -23 -8 -46 -38 -55 -37 -11 -87 -65 -87 -94 0 -26 0 -26 79 -25
44 0 83 4 87 8 14 14 -8 21 -66 19 -33 -1 -62 3 -65 8 -7 12 29 45 71 65 55
26 71 77 34 110 -21 19 -65 26 -96 15z"/>
<path d="M6323 6272 c-18 -9 -35 -23 -37 -29 -6 -16 18 -17 45 -3 18 10 19 7
19 -69 l0 -80 -27 2 c-19 1 -28 -3 -28 -13 0 -11 14 -15 65 -15 51 0 65 3 65
15 0 10 -8 14 -22 12 -26 -4 -25 -9 -24 121 0 84 -2 87 -56 59z"/>
<path d="M6719 6261 c-80 -80 27 -210 119 -145 24 17 27 9 12 -30 -20 -53 -77
-68 -116 -29 -9 10 -19 12 -25 6 -15 -15 37 -56 71 -56 68 0 104 49 109 150 3
56 -17 106 -48 123 -39 20 -91 12 -122 -19z m126 -28 c39 -59 -24 -129 -87
-97 -72 37 -26 146 54 126 9 -2 24 -15 33 -29z"/>
<path d="M5685 6266 c-79 -33 -79 -159 0 -192 50 -21 125 -2 125 31 0 19 -3
19 -41 -4 -25 -15 -37 -17 -60 -9 -28 10 -49 34 -49 57 0 7 19 11 48 10 112
-3 122 -1 122 26 0 34 -48 85 -85 89 -17 2 -44 -2 -60 -8z m95 -38 c36 -39 27
-48 -50 -48 -77 0 -89 12 -48 50 29 26 72 26 98 -2z"/>
<path d="M5903 6269 c-54 -20 -51 -90 4 -103 57 -13 83 -28 83 -48 0 -31 -50
-43 -94 -21 -20 10 -31 12 -39 4 -16 -16 58 -43 101 -37 39 5 62 28 62 62 0
26 -32 49 -83 58 -42 8 -56 28 -37 51 15 18 71 20 88 3 9 -9 15 -9 23 -1 23
23 -65 48 -108 32z"/>
<path d="M348 6202 c-10 -2 -18 -9 -18 -17 0 -33 39 -34 1012 -38 355 -1 650
-5 653 -9 4 -4 21 0 37 8 22 11 40 13 78 6 27 -5 333 -7 687 -5 1077 8 1737
13 1758 14 11 0 120 -2 242 -6 195 -5 222 -4 217 9 -8 20 -159 23 -859 17
-308 -2 -738 -4 -955 -4 -217 1 -505 1 -640 1 -135 0 -371 1 -525 2 -154 2
-352 2 -440 2 -650 -4 -867 -3 -984 2 -73 3 -139 2 -147 -2 -20 -11 -92 -2
-96 12 -2 6 -11 10 -20 8z"/>
<path d="M5258 6166 l-88 -31 -2 -160 -3 -160 -72 0 c-39 0 -74 -3 -77 -6 -3
-3 -7 -38 -9 -77 -2 -59 0 -72 13 -73 8 -1 45 -1 83 -1 l67 0 0 -296 c1 -257
3 -304 18 -348 47 -136 178 -202 377 -191 193 11 298 99 311 260 3 36 0 83 -8
112 -15 56 -10 55 -116 35 -58 -11 -63 -14 -57 -34 19 -62 17 -111 -7 -145
-37 -55 -81 -73 -165 -69 -81 4 -114 21 -148 79 -18 31 -19 53 -20 314 l0 280
125 2 c69 0 134 2 145 2 18 1 20 7 18 68 -1 38 -2 73 -2 78 -1 7 -51 10 -137
10 -80 0 -139 4 -142 10 -4 6 -7 90 -7 187 0 97 -2 178 -5 180 -3 2 -44 -10
-92 -26z"/>
<path d="M791 5825 c-163 -36 -276 -139 -336 -307 -9 -24 -18 -92 -22 -153 -6
-123 8 -196 55 -295 34 -69 124 -159 196 -194 143 -70 364 -73 494 -7 72 37
142 120 166 197 6 19 -1 23 -61 39 -38 10 -73 20 -79 22 -5 2 -17 -12 -26 -31
-20 -40 -68 -79 -121 -96 -55 -17 -173 -15 -232 5 -87 29 -141 78 -183 165
-24 49 -27 66 -27 160 0 95 3 110 28 160 45 87 112 145 199 171 83 25 231 2
284 -45 23 -19 27 -31 27 -69 -1 -51 -5 -48 91 -67 63 -13 74 -8 77 35 0 11 2
34 4 50 4 51 -22 119 -62 160 -37 36 -116 81 -165 91 -81 17 -111 21 -174 22
-38 0 -98 -5 -133 -13z"/>
<path d="M1804 5820 c-99 -26 -160 -59 -222 -120 -50 -51 -106 -146 -118 -200
-61 -288 31 -525 242 -625 207 -98 464 -62 613 85 149 148 186 412 85 618 -55
114 -142 188 -271 234 -83 29 -235 33 -329 8z m304 -185 c113 -58 172 -164
172 -311 0 -202 -148 -347 -347 -338 -121 5 -222 72 -275 183 -29 59 -32 75
-31 156 0 150 60 258 175 314 91 44 217 42 306 -4z"/>
<path d="M3878 5828 l-48 -10 0 -79 0 -80 49 7 c71 9 99 0 108 -36 6 -23 10
-585 4 -622 0 -5 -37 -8 -81 -8 l-80 0 0 -79 0 -80 257 2 257 2 2 78 1 77 -84
0 -83 0 0 245 c0 229 1 248 21 290 45 96 148 146 283 138 86 -4 140 -33 167
-90 22 -45 23 -59 24 -322 1 -152 5 -292 10 -311 24 -107 136 -156 262 -114
26 9 58 22 70 30 l22 14 -19 55 c-25 72 -29 78 -44 66 -23 -19 -65 -20 -88 -1
-23 18 -23 22 -29 302 -5 265 -7 287 -28 341 -56 142 -168 199 -376 193 -106
-3 -172 -30 -242 -99 -33 -32 -43 -37 -43 -23 0 34 -40 84 -84 105 -46 23
-125 26 -208 9z"/>
<path d="M6043 5828 l-53 -10 0 -79 0 -80 63 7 c72 7 96 -6 98 -54 4 -78 4
-589 1 -599 -3 -9 -29 -13 -83 -13 l-79 0 0 -79 0 -79 287 1 288 2 0 78 1 77
-113 0 -113 0 0 250 c0 280 0 281 69 343 50 45 89 65 146 76 52 10 128 -3 145
-24 17 -20 15 -77 -4 -112 l-15 -30 79 -17 c44 -10 84 -15 89 -12 20 13 53
122 52 173 -1 122 -85 186 -246 187 -38 1 -82 -2 -96 -6 -48 -12 -128 -58
-170 -98 -23 -22 -45 -37 -50 -35 -4 3 -10 18 -14 34 -7 31 -32 62 -71 87 -29
20 -136 25 -211 12z"/>
<path d="M2509 5815 c-1 0 -2 -35 -3 -77 l-2 -78 83 0 83 0 1 -247 c1 -137 1
-253 0 -260 -3 -23 29 -144 48 -181 53 -104 170 -153 351 -149 112 3 179 28
247 96 l41 41 7 -30 c9 -42 58 -87 108 -101 40 -11 136 -7 200 7 29 7 28 4 30
112 l0 47 -65 -3 c-73 -4 -98 10 -99 56 0 15 -1 194 -2 397 l-2 370 -172 0
c-95 1 -174 -2 -174 -5 -1 -3 -2 -38 -3 -77 l-2 -73 83 0 83 0 0 -247 c0 -230
-1 -250 -21 -290 -52 -108 -183 -159 -331 -128 -70 14 -113 51 -130 110 -7 25
-12 161 -13 370 -2 182 -3 332 -4 335 -1 4 -320 9 -342 5z"/>
<path d="M6990 5738 l0 -78 110 0 c97 0 110 -2 120 -19 5 -11 91 -212 190
-447 l180 -427 -40 -81 c-50 -101 -104 -173 -150 -198 -74 -40 -160 1 -160 78
0 21 -5 34 -12 34 -24 -1 -139 -28 -146 -34 -12 -13 18 -117 45 -156 17 -25
48 -50 78 -64 43 -22 62 -25 140 -23 113 3 168 29 247 117 82 90 147 227 333
695 91 231 175 443 187 472 l21 52 62 -1 c34 -1 66 2 71 5 7 4 10 114 5 147
-1 3 -116 6 -256 6 l-255 0 0 -78 0 -78 28 -1 c15 0 52 -1 83 -1 l57 -1 -23
-61 c-13 -34 -68 -179 -122 -323 -54 -145 -100 -263 -103 -263 -3 0 -15 26
-27 58 -13 31 -88 212 -167 402 l-143 345 -177 0 -176 1 0 -78z"/>
<path d="M6829 4739 c-6 -3 -8 -256 -7 -640 3 -709 -1 -667 75 -719 28 -19 50
-25 107 -27 63 -2 168 16 183 31 3 3 0 28 -7 56 -10 41 -16 50 -29 45 -33 -13
-107 -16 -133 -6 -16 6 -37 25 -48 43 -19 32 -20 51 -20 625 l0 591 -56 4
c-31 1 -60 0 -65 -3z"/>
<path d="M2980 4515 l0 -165 -32 -1 c-18 -1 -50 -1 -70 -1 l-38 0 3 -51 2 -52
68 0 67 1 0 -378 c0 -354 1 -381 19 -416 53 -102 173 -127 349 -72 58 18 67
31 52 77 -7 21 -15 41 -19 45 -4 5 -32 -1 -62 -11 -91 -33 -177 -13 -199 45
-6 14 -10 173 -10 363 0 314 1 339 18 343 9 2 59 3 110 3 102 -1 104 0 99 70
l-2 30 -85 2 c-47 1 -97 2 -112 2 l-28 1 0 165 0 165 -65 0 -65 0 0 -165z"/>
<path d="M1033 4354 c-111 -23 -223 -93 -284 -177 -33 -46 -31 -51 -30 88 l0
81 -60 2 c-55 2 -59 1 -60 -20 -1 -29 -1 -939 0 -956 1 -9 18 -12 64 -10 l62
3 2 298 c1 253 4 304 18 340 55 137 198 238 340 240 69 0 110 -17 149 -63 52
-63 58 -106 62 -460 2 -179 3 -333 4 -342 0 -15 10 -18 66 -18 l66 0 -4 368
c-4 346 -6 371 -26 434 -55 167 -179 232 -369 192z"/>
<path d="M2044 4354 c-32 -6 -79 -20 -104 -30 -49 -19 -160 -82 -160 -90 0 -3
9 -22 20 -44 l20 -39 83 44 c176 94 337 92 436 -4 46 -45 72 -113 77 -207 l5
-82 -78 20 c-99 24 -267 30 -350 13 -181 -39 -297 -169 -280 -315 21 -177 165
-285 366 -275 121 5 227 51 317 137 l40 39 -2 -38 c-2 -49 20 -97 52 -112 28
-12 104 -15 105 -3 7 68 3 97 -18 116 -22 21 -22 25 -24 291 -1 303 -8 347
-64 433 -85 127 -257 184 -441 146z m256 -509 c124 -25 119 -20 117 -128 -2
-86 -5 -97 -31 -131 -91 -120 -296 -177 -419 -117 -79 38 -121 98 -126 179
-10 165 193 252 459 197z"/>
<path d="M5908 4354 c-63 -12 -214 -76 -249 -105 -15 -13 -15 -17 2 -56 l19
-42 83 43 c133 70 243 88 340 57 110 -35 166 -120 175 -265 4 -81 3 -89 -12
-83 -100 38 -287 54 -398 33 -183 -35 -292 -146 -291 -296 1 -81 27 -142 90
-204 64 -64 134 -90 248 -90 141 0 271 53 353 145 25 28 30 30 30 14 -1 -70 4
-88 31 -116 25 -24 37 -29 80 -29 l51 0 -1 60 c-1 43 -5 60 -15 60 -27 0 -32
40 -32 280 -1 293 -4 325 -38 399 -71 160 -254 236 -466 195z m217 -500 c60
-11 75 -14 112 -27 l38 -12 3 -90 c3 -85 1 -94 -25 -133 -75 -110 -260 -176
-390 -137 -185 56 -215 282 -50 367 74 37 208 51 312 32z"/>
<path d="M7830 4358 c-68 -11 -145 -46 -192 -87 -104 -91 -117 -285 -24 -356
50 -38 109 -61 261 -100 170 -43 235 -68 268 -103 60 -63 39 -172 -45 -226
-58 -38 -182 -51 -288 -32 -45 9 -147 56 -204 95 l-44 30 -26 -39 c-14 -22
-26 -43 -26 -48 0 -11 54 -51 106 -79 66 -35 181 -64 274 -68 75 -3 107 0 196
19 12 2 40 14 63 25 96 50 149 125 155 225 10 150 -64 219 -296 281 -297 78
-318 89 -326 177 -10 121 78 193 232 191 114 -1 241 -44 285 -97 11 -13 17
-10 47 25 l34 41 -37 30 c-101 82 -265 120 -413 96z"/>
<path d="M5320 4350 c-81 -15 -178 -89 -234 -179 -15 -23 -27 -41 -29 -41 -1
0 -2 50 -2 110 l0 110 -62 -1 -63 -2 0 -492 0 -492 65 -2 c36 -1 65 2 66 6 0
4 1 143 1 308 0 295 1 301 24 350 54 112 174 192 309 207 29 3 30 5 31 53 0
28 -1 55 -3 60 -4 12 -55 15 -103 5z"/>
<path d="M3667 4342 c-6 -12 1 -695 7 -722 31 -131 79 -205 158 -244 152 -74
364 -23 498 121 33 34 61 63 63 63 2 0 3 -28 2 -62 -4 -108 33 -146 136 -140
25 2 26 4 24 57 -1 42 -7 58 -23 72 -22 18 -22 21 -25 438 l-2 420 -62 1 c-58
2 -63 0 -64 -20 0 -11 -1 -151 -1 -311 l0 -290 -30 -57 c-78 -147 -255 -236
-395 -199 -74 20 -130 96 -148 201 -5 25 -9 187 -9 360 l-1 315 -62 2 c-35 1
-64 -1 -66 -5z"/>
<path d="M600 3118 c-75 -51 -87 -151 -25 -221 13 -15 35 -31 47 -36 34 -12
87 -5 109 15 16 15 19 15 19 2 0 -9 7 -18 15 -22 12 -4 15 7 15 67 l0 73 -37
-2 c-53 -2 -55 -3 -48 -14 4 -6 16 -10 28 -8 30 4 36 -41 8 -66 -34 -31 -83
-31 -119 -2 -29 25 -50 67 -46 94 1 6 2 21 3 31 0 10 14 33 30 50 37 40 86 42
129 6 39 -33 55 -13 19 22 -37 37 -101 42 -147 11z"/>
<path d="M2139 3078 c-4 -177 -3 -210 9 -220 6 -6 13 -9 13 -7 1 2 2 61 3 132
1 96 -2 127 -11 127 -8 0 -13 -13 -14 -32z"/>
<path d="M2230 2982 l0 -127 85 0 c62 0 85 3 85 12 0 9 -20 13 -70 13 -80 0
-72 -16 -71 143 0 70 -3 87 -14 87 -12 0 -15 -23 -15 -128z"/>
<path d="M883 3055 c-107 -46 -56 -219 59 -201 46 7 92 56 53 56 -8 0 -15 -4
-15 -9 0 -5 -13 -13 -28 -19 -31 -10 -57 -2 -79 26 -26 32 -15 39 68 39 44 1
83 4 86 7 12 12 -13 69 -37 88 -34 25 -69 30 -107 13z m96 -41 c12 -15 21 -31
21 -35 0 -12 -137 -12 -144 0 -3 5 5 20 19 35 32 35 76 35 104 0z"/>
<path d="M1137 3051 c-29 -15 -37 -16 -37 -5 0 8 -7 14 -15 14 -12 0 -15 -18
-15 -103 0 -86 3 -104 15 -104 12 0 15 15 15 69 0 61 3 72 25 93 24 21 66 28
81 12 3 -3 6 -41 7 -84 2 -71 10 -98 28 -88 12 8 2 177 -12 190 -25 23 -54 25
-92 6z"/>
<path d="M1354 3059 c-35 -13 -64 -58 -64 -100 0 -52 42 -100 90 -104 39 -3
85 16 93 40 8 20 -12 19 -34 -1 -26 -23 -66 -20 -95 6 -41 39 -32 46 59 47
l82 0 3 30 c2 21 -4 37 -24 56 -15 15 -32 28 -38 28 -6 1 -20 3 -31 4 -11 1
-30 -1 -41 -6z m71 -25 c8 -4 22 -19 31 -35 l15 -29 -76 0 c-82 0 -92 8 -55
48 21 22 53 28 85 16z"/>
<path d="M1759 3056 c-22 -11 -27 -35 -5 -27 6 2 27 6 47 9 37 4 54 -8 61 -43
3 -17 -2 -19 -35 -16 -74 6 -117 -29 -103 -84 9 -37 70 -54 114 -31 23 12 29
12 41 -1 11 -12 15 -12 22 -2 4 7 4 18 -1 24 -5 6 -8 39 -8 73 1 50 -3 67 -19
83 -23 23 -82 31 -114 15z m99 -109 c8 -9 7 -20 -1 -37 -10 -20 -21 -26 -54
-28 -39 -3 -43 -1 -49 24 -5 20 -2 31 11 41 24 17 79 17 93 0z"/>
<path d="M1510 3053 c0 -26 78 -193 91 -196 15 -4 38 41 96 191 3 6 -2 12 -10
12 -10 0 -23 -21 -35 -52 -11 -29 -27 -68 -35 -86 l-14 -33 -33 85 c-19 50
-39 86 -46 86 -8 0 -14 -3 -14 -7z"/>
<path d="M6328 2974 c-10 -9 -1027 -20 -1478 -16 -176 2 -661 -6 -703 -12 -15
-2 -49 1 -75 6 -55 11 -265 12 -372 1 -66 -6 -334 -7 -750 -3 -74 0 -153 1
-175 1 -22 0 -42 4 -43 9 -5 13 -29 13 -37 0 -15 -24 62 -39 201 -39 76 0 267
-1 424 -1 157 -1 303 -2 325 -1 22 0 99 1 170 2 207 3 357 2 397 -4 21 -3 45
1 55 8 10 7 27 10 38 7 28 -8 928 -5 1250 3 149 4 666 8 1150 8 484 0 945 4
1025 8 80 4 240 11 355 14 116 4 212 9 215 12 3 3 -146 2 -330 -2 -388 -7
-871 -7 -1321 0 -174 2 -319 2 -321 -1z"/>
<path d="M8310 2976 c0 -7 71 -13 75 -6 2 3 -14 7 -36 8 -21 2 -39 1 -39 -2z"/>
<path d="M1959 2898 c0 -2 -2 -18 -4 -36 -2 -22 0 -32 8 -29 15 5 22 67 8 67
-6 0 -11 -1 -12 -2z"/>
</g>
</svg>
